<?xml version="1.0" encoding="utf-8"?>
<!-- Generator: Adobe Illustrator 19.2.0, SVG Export Plug-In . SVG Version: 6.00 Build 0)  -->
<svg version="1.1" id="Layer_1" xmlns="http://www.w3.org/2000/svg" xmlns:xlink="http://www.w3.org/1999/xlink" x="0px" y="0px"
	 viewBox="0 0 1920 1080" style="enable-background:new 0 0 1920 1080;" xml:space="preserve">
<style type="text/css">
	.st0{fill:#4D4D4D;}
	.st1{fill:#754C24;}
	.st2{fill:#F69B76;}
	.st3{fill:#F8C09D;}
	.st4{fill:#F6AE8D;}
	.st5{fill:#333333;}
	.st6{fill:#EF937E;}
	.st7{fill:#E26C60;}
	.st8{fill:#E6E6E6;}
	.st9{fill:#FBB03B;}
	.st10{fill:#FFC06C;}
	.st11{fill:none;stroke:#FFFFFF;stroke-width:3;stroke-miterlimit:10;}
	.st12{fill:#CCCCCC;}
	.st13{fill:none;stroke:#FBB03B;stroke-width:5;stroke-miterlimit:10;}
	.st14{fill:none;}
</style>
<path class="st0" d="M921,674.9h-1.3c-41.6,0-75.4-34.2-75.4-75.8v-0.2h152v0.2C996.3,640.7,962.6,674.9,921,674.9z"/>
<path class="st1" d="M895.9,940.9l0,41l-80.8,0.4c0,0,3-18.4,22.9-21.9c19.8-3.6,36.6,7.8,36.6,7.8l2.1-27.3H895.9z"/>
<rect x="865.3" y="598.9" class="st0" width="41" height="342"/>
<path class="st1" d="M944,940.9l0,41l80.8,0.4c0,0-3-18.4-22.9-21.9c-19.8-3.6-36.6,7.8-36.6,7.8l-2.1-27.3H944z"/>
<rect x="933.3" y="598.9" transform="matrix(-1 -1.224647e-16 1.224647e-16 -1 1907.6014 1539.7622)" class="st0" width="41" height="342"/>
<path class="st2" d="M891.5,391.3h57.7c26,0,47.2,21.1,47.2,47.2v160.4h-152V438.5C844.3,412.4,865.4,391.3,891.5,391.3z"/>
<path class="st2" d="M950.7,401L950.7,401c-6.7,7.6-6,19.3,1.6,26l102.9,91c7.6,6.7,19.3,6,26-1.6l0,0c6.7-7.6,6-19.3-1.6-26
	l-102.9-91C969.1,392.7,957.5,393.4,950.7,401z"/>
<path class="st2" d="M976.2,596.2L976.2,596.2c7,7.4,18.6,7.8,26.1,0.9l80.2-75.1c7.4-7,7.8-18.6,0.9-26.1v0
	c-7-7.4-18.6-7.8-26.1-0.9L977,570.1C969.6,577.1,969.2,588.8,976.2,596.2z"/>
<g>
	<path class="st3" d="M990.5,597.2l9.9,5.6l-17.5,30.9c-1.5,2.7-5,3.7-7.7,2.1l0,0c-2.7-1.5-3.7-5-2.1-7.7L990.5,597.2z"/>
	<path class="st3" d="M980.2,591.4l9.7,5.9l-22.4,36.6c-1.6,2.7-5.1,3.5-7.8,1.9l0,0c-2.7-1.6-3.5-5.1-1.9-7.8L980.2,591.4z"/>
	<path class="st3" d="M969.2,589.6l9,6.9L952,630.5c-1.9,2.5-5.5,2.9-8,1l0,0c-2.5-1.9-2.9-5.5-1-8L969.2,589.6z"/>
	<path class="st3" d="M966.3,580.5l7.6,8.5l-32.1,28.5c-2.3,2.1-5.9,1.9-8-0.5v0c-2.1-2.3-1.9-5.9,0.5-8L966.3,580.5z"/>
	<path class="st3" d="M969.6,573.1l2.9,11l-25,6.7c-3,0.8-6.1-1-7-4l0,0c-0.8-3,1-6.1,4-7L969.6,573.1z"/>
	<path class="st3" d="M963.5,576.9L958,584c-1,1.3-0.8,3.2,0.5,4.2l31.4,24.2c1.3,1,3.2,0.8,4.2-0.5l5.5-7.2
		c3.8-4.9,2.9-12.1-2-15.9l-18.2-14.1C974.5,571,967.3,571.9,963.5,576.9z"/>
</g>
<path class="st2" d="M725.7,428.2L725.7,428.2c1.1,10.1,10.2,17.5,20.3,16.4l136.6-14.7c10.1-1.1,17.5-10.2,16.4-20.3l0,0
	c-1.1-10.1-10.2-17.5-20.3-16.4l-136.6,14.7C732,408.9,724.6,418,725.7,428.2z"/>
<path class="st2" d="M739.2,444.9L739.2,444.9c10.1,1.6,19.5-5.2,21.2-15.2l22.1-135.6c1.6-10.1-5.2-19.5-15.2-21.2h0
	c-10.1-1.6-19.5,5.2-21.2,15.2L724,423.7C722.4,433.8,729.2,443.3,739.2,444.9z"/>
<g>
	<path class="st3" d="M775,285.2L775,285.2c-0.4-3.5,2-6.7,5.5-7.2l29.2-3.7c3.5-0.4,6.7,2,7.2,5.5l0,0c0.4,3.5-2,6.7-5.5,7.2
		l-29.2,3.7C778.6,291.2,775.4,288.7,775,285.2z"/>
	<path class="st3" d="M742.6,268.9l3.3-9.8c1.4-4.2,6-6.5,10.2-5.1l33.3,11.2c4.2,1.4,6.5,6,5.1,10.2l-3.3,9.8
		c-1.5,4.5-6.4,6.9-10.9,5.4L748,279.8C743.5,278.3,741.1,273.4,742.6,268.9z"/>
	<path class="st3" d="M784.9,284L784.9,284c-3.3-1.1-5.1-4.8-4-8.1l18.9-56.3c1.1-3.3,4.8-5.1,8.1-4l0,0c3.3,1.1,5.1,4.8,4,8.1
		L793,280C791.9,283.4,788.2,285.2,784.9,284z"/>
	<path class="st3" d="M774.6,274.5L774.6,274.5c-3.3-1.1-5.1-4.8-4-8.1l9.4-27.9c1.1-3.3,4.8-5.1,8.1-4v0c3.3,1.1,5.1,4.8,4,8.1
		l-9.4,27.9C781.6,273.8,777.9,275.6,774.6,274.5z"/>
	<path class="st3" d="M761.4,273.4L761.4,273.4c-3.3-1.1-5.1-4.8-4-8.1l9.4-27.9c1.1-3.3,4.8-5.1,8.1-4l0,0c3.3,1.1,5.1,4.8,4,8.1
		l-9.4,27.9C768.4,272.8,764.8,274.6,761.4,273.4z"/>
	<path class="st3" d="M747.8,273.8L747.8,273.8c-3.3-1.1-5.1-4.8-4-8.1l9.4-27.9c1.1-3.3,4.8-5.1,8.1-4v0c3.3,1.1,5.1,4.8,4,8.1
		l-9.4,27.9C754.8,273.1,751.2,274.9,747.8,273.8z"/>
</g>
<path class="st3" d="M950.2,395.3c0,13.4-10.9,24.5-24.3,24.5h0h-0.2c-13.4,0-24.5-11.1-24.5-24.5v-21.5h49V395.3z"/>
<path class="st4" d="M901.2,389.7c9.5,4.1,19.4,6.3,28.9,6.3c6.6,0,13.4-1.1,20.1-3.1v-15.5h-49V389.7z"/>
<path class="st3" d="M930,384.7c-34.9,0-76.8-30.5-76.8-73.2V183h154.1v128.5C1007.3,354.2,964.9,384.7,930,384.7z"/>
<rect x="835.1" y="240.1" class="st5" width="36.3" height="39"/>
<circle class="st3" cx="852.8" cy="276.8" r="21.9"/>
<path class="st6" d="M848.4,279.9c0-4.3,3.5-7.8,7.8-7.8c1.2,0,2.3,0.3,3.3,0.7c-1.4-2.3-3.8-3.8-6.7-3.8c-4.3,0-7.8,3.5-7.8,7.8
	c0,3.1,1.8,5.8,4.5,7C848.8,282.7,848.4,281.3,848.4,279.9z"/>
<path class="st5" d="M865.9,179v0.4h-9.6c-11.7,0-21.2,9.3-21.2,20.9l0-0.2V230v24.6h36.3v-11.1c0-7.4,5.7-13.3,13.2-13.3h118
	c14.1,0,25.6-11.6,25.6-25.7v-51.3H891.7C877.6,153.1,865.9,164.9,865.9,179z"/>
<polygon class="st5" points="1021.8,270.5 1006.4,259.6 1006.4,218.3 1021.8,218.3 "/>
<circle class="st3" cx="1009" cy="276.8" r="21.9"/>
<path class="st6" d="M1016.2,279.9c0-4.3-3.5-7.8-7.8-7.8c-1.2,0-2.3,0.3-3.3,0.7c1.4-2.3,3.8-3.8,6.7-3.8c4.3,0,7.8,3.5,7.8,7.8
	c0,3.1-1.8,5.8-4.5,7C1015.8,282.7,1016.2,281.3,1016.2,279.9z"/>
<path class="st7" d="M911.5,321.5c0,13.6,11.1,24.7,24.7,24.7h0c13.6,0,24.7-11.1,24.7-24.7"/>
<path class="st6" d="M932,288.6v15.9c0,0.7,0.9,1.3,1.6,1.3h9.4c2.6,0,4-3,2.3-4.9l-10.9-13C933.7,286.8,932,287.3,932,288.6z"/>
<ellipse class="st5" cx="905.1" cy="279.5" rx="5" ry="8.8"/>
<ellipse class="st5" cx="968.6" cy="279.5" rx="5" ry="8.8"/>
<g>
	<circle class="st8" cx="1141.6" cy="230.4" r="7.2"/>
	<path class="st9" d="M1143.6,115.9c-0.5,0-1.1,0-1.6,0c-0.5,0-1.1,0-1.6,0c-26.1,1-45.7,29.2-34.1,52.7l0.5,1.1
		c6.1,10.6,14.1,7.7,14.1,19.8v8.5h42.3v-8.6c0-12,7.2-9.5,13.2-19.6l0.6-1.3C1188.3,144.9,1169.6,116.9,1143.6,115.9z"/>
	<g>
		<path class="st10" d="M1143.6,115.9c-0.5,0-1.1,0-1.6,0c-0.5,0-1.1,0-1.6,0c-11.5,0.5-21.7,6.1-28.5,14.4
			c6.4-5.3,14.5-8.8,23.3-9.2c0.5,0,1,0,1.6,0c0.5,0,1.1,0,1.6,0c26.1,1.1,44.8,29,33.5,52.6l-0.6,1.3c-0.5,0.8-0.9,1.5-1.4,2.1
			c2.1-1.6,4.4-3.7,6.6-7.3l0.6-1.3C1188.3,144.9,1169.6,116.9,1143.6,115.9z"/>
	</g>
	<path class="st11" d="M1145.9,194.8c-0.8-6.7-1.5-13.5-1.2-20.3c0.3-6.8,1.6-13.6,4.9-19.6c0.8-1.5,1.8-3,3.2-4
		c2.4-1.7,5.8-1.6,8.1,0.1s3.3,5,2.3,7.8c-1,2.7-3.5,4.5-6,5.7c-5.1,2.4-27,2.4-32.1,0c-2.6-1.2-5.1-3-6-5.7c-1-2.7,0-6,2.3-7.8
		c2.3-1.7,5.7-1.8,8.1-0.1c1.4,1,2.4,2.5,3.2,4c3.2,6,4.6,12.8,4.9,19.6c0.3,6.8-0.5,13.6-1.2,20.3"/>
	<path class="st12" d="M1157.3,230.4H1127c-2.4,0-6.2-1.9-6.2-4.2l0,0v-30.5c0-1.6,1.3-2.9,2.9-2.9h36.8c1.6,0,2.9,1.3,2.9,2.9v30.3
		v0.1C1163.5,228.5,1159.7,230.4,1157.3,230.4z"/>
	<path class="st8" d="M1163.6,197.9l-45.3,5.5c-1.9,0.2-3.7-1.1-3.9-3.1l-0.1-0.7c-0.2-1.9,1.1-3.7,3.1-3.9l45.3-5.5
		c1.9-0.2,3.7,1.1,3.9,3.1l0.1,0.7C1166.9,195.9,1165.5,197.6,1163.6,197.9z"/>
	<path class="st8" d="M1165.1,210.6l-45.3,5.5c-1.9,0.2-3.7-1.1-3.9-3.1l-0.1-0.7c-0.2-1.9,1.1-3.7,3.1-3.9l45.3-5.5
		c1.9-0.2,3.7,1.1,3.9,3.1l0.1,0.7C1168.4,208.6,1167.1,210.4,1165.1,210.6z"/>
	<path class="st8" d="M1166.7,223.4l-45.3,5.5c-1.9,0.2-3.7-1.1-3.9-3.1l-0.1-0.7c-0.2-1.9,1.1-3.7,3.1-3.9l45.3-5.5
		c1.9-0.2,3.7,1.1,3.9,3.1l0.1,0.7C1170,221.4,1168.6,223.1,1166.7,223.4z"/>
	<g>
		<g>
			<g>
				<g>
					<line class="st13" x1="1094.1" y1="192.8" x2="1105.3" y2="183.2"/>
					<line class="st13" x1="1094.1" y1="192.8" x2="1105.3" y2="183.2"/>
					<path class="st14" d="M1100.7,165c0,0,0.1,0.3,0.2,0.7c0.2,0.4,0.4,1.1,0.7,1.8c0.6,1.5,1.5,3.5,2.5,5.4c1,1.9,2.3,3.7,3.2,5
						c1,1.3,1.7,2.1,1.7,2.1l-17.1,14.6c0,0-1.1-1.2-2.6-3.2c-1.5-2-3.3-4.7-4.9-7.6c-1.6-2.9-3-5.9-3.8-8.2c-0.5-1.1-0.8-2.1-1-2.8
						c-0.2-0.7-0.4-1.1-0.4-1.1L1100.7,165z"/>
				</g>
				<g>
					<line class="st13" x1="1081.2" y1="168.2" x2="1095.4" y2="164.4"/>
					<line class="st13" x1="1081.2" y1="168.2" x2="1095.4" y2="164.4"/>
					<path class="st14" d="M1099.1,146c0,0-0.1,1.1-0.2,2.7c-0.2,1.6-0.2,3.8-0.1,6c0.1,2.2,0.4,4.3,0.8,5.9
						c0.1,0.8,0.3,1.5,0.4,1.9c0.1,0.5,0.2,0.7,0.2,0.7l-21.7,5.8c0,0-0.1-0.4-0.3-1.1c-0.2-0.7-0.4-1.7-0.7-2.9
						c-0.5-2.4-1-5.7-1.2-9c-0.2-3.3-0.1-6.6,0.1-9c0.2-2.5,0.4-4.1,0.4-4.1L1099.1,146z"/>
				</g>
				<g>
					<line class="st13" x1="1080.2" y1="140.4" x2="1094.7" y2="143.2"/>
					<line class="st13" x1="1080.2" y1="140.4" x2="1094.7" y2="143.2"/>
					<path class="st14" d="M1106,128.2c0,0-0.2,0.2-0.4,0.6c-0.1,0.2-0.3,0.4-0.5,0.7c-0.1,0.1-0.2,0.3-0.3,0.4
						c-0.1,0.2-0.2,0.3-0.3,0.5c-0.4,0.7-0.8,1.6-1.3,2.4c-0.1,0.2-0.2,0.4-0.4,0.7c-0.1,0.2-0.2,0.5-0.3,0.7
						c-0.2,0.5-0.4,1-0.6,1.5c-0.2,0.5-0.4,1-0.6,1.5c-0.2,0.5-0.3,1-0.5,1.5c-0.3,1-0.6,1.9-0.8,2.6c-0.2,0.8-0.3,1.5-0.4,1.9
						c-0.1,0.5-0.1,0.7-0.1,0.7l-22.1-4.1c0,0,0.1-0.4,0.2-1.1c0.2-0.7,0.3-1.7,0.6-2.9c0.4-1.2,0.8-2.6,1.2-4
						c0.2-0.7,0.4-1.5,0.7-2.3c0.3-0.8,0.6-1.5,0.9-2.3c0.3-0.8,0.6-1.5,0.9-2.3c0.2-0.4,0.3-0.7,0.5-1.1c0.2-0.4,0.4-0.7,0.5-1
						c0.7-1.4,1.4-2.6,2-3.7c0.1-0.3,0.3-0.5,0.4-0.8c0.2-0.2,0.3-0.5,0.4-0.7c0.3-0.4,0.5-0.8,0.7-1.1c0.4-0.6,0.6-0.9,0.6-0.9
						L1106,128.2z"/>
				</g>
				<g>
					<line class="st13" x1="1091.2" y1="114.9" x2="1103.1" y2="123.6"/>
					<line class="st13" x1="1091.2" y1="114.9" x2="1103.1" y2="123.6"/>
					<path class="st14" d="M1119.8,115c0,0-0.2,0.1-0.7,0.4c-0.4,0.3-0.9,0.7-1.6,1.1c-0.3,0.2-0.7,0.5-1.1,0.7
						c-0.2,0.1-0.4,0.3-0.6,0.4c-0.2,0.1-0.4,0.3-0.6,0.5c-0.8,0.7-1.6,1.3-2.4,2c-0.8,0.7-1.5,1.5-2.3,2.3c-0.4,0.4-0.7,0.7-1,1.1
						c-0.3,0.4-0.6,0.7-0.8,1c-0.5,0.6-0.9,1.2-1.2,1.5c-0.3,0.4-0.5,0.6-0.5,0.6l-18.1-13.3c0,0,0.2-0.3,0.7-0.9
						c0.5-0.6,1.1-1.4,1.9-2.3c0.4-0.5,0.8-1,1.3-1.5c0.5-0.5,1-1.1,1.5-1.6c1.1-1.1,2.2-2.3,3.4-3.4c1.3-1.1,2.5-2.1,3.7-3.1
						c0.3-0.2,0.6-0.5,0.9-0.7c0.3-0.2,0.6-0.4,0.9-0.6c0.6-0.4,1.1-0.8,1.6-1.1c1-0.7,1.9-1.3,2.5-1.7c0.6-0.4,1-0.6,1-0.6
						L1119.8,115z"/>
				</g>
				<g>
					<line class="st13" x1="1112.2" y1="96.8" x2="1119.2" y2="109.7"/>
					<line class="st13" x1="1112.2" y1="96.8" x2="1119.2" y2="109.7"/>
					<path class="st14" d="M1138,109.1c0,0-1.1,0.1-2.7,0.3c-0.8,0.1-1.7,0.4-2.7,0.6c-0.5,0.1-1,0.2-1.5,0.3
						c-0.5,0.1-1,0.3-1.5,0.5c-1,0.3-2.1,0.6-3,1c-0.9,0.4-1.8,0.8-2.5,1.1c-0.4,0.2-0.7,0.3-1,0.4c-0.3,0.2-0.5,0.3-0.7,0.4
						c-0.4,0.2-0.6,0.4-0.6,0.4l-10.6-19.8c0,0,0.4-0.2,1-0.5c0.3-0.2,0.7-0.4,1.1-0.6c0.5-0.2,1-0.4,1.5-0.7
						c1.1-0.5,2.5-1.1,3.9-1.7c1.4-0.5,3-1,4.6-1.5c0.8-0.2,1.6-0.5,2.4-0.7c0.8-0.2,1.6-0.3,2.3-0.5c1.5-0.3,2.9-0.7,4.1-0.8
						c2.5-0.3,4.1-0.5,4.1-0.5L1138,109.1z"/>
				</g>
				<g>
					<line class="st13" x1="1139" y1="89.4" x2="1139.7" y2="104.1"/>
					<line class="st13" x1="1139" y1="89.4" x2="1139.7" y2="104.1"/>
					<path class="st14" d="M1156.9,111.6c0,0-0.1,0-0.2-0.1c-0.1,0-0.3-0.1-0.5-0.2c-0.5-0.1-1.1-0.3-1.9-0.6
						c-0.4-0.1-0.8-0.2-1.3-0.4c-0.4-0.1-0.9-0.3-1.4-0.4c-1-0.2-2.1-0.4-3.1-0.6c-0.5-0.1-1.1-0.1-1.6-0.2c-0.5,0-1.1-0.1-1.6-0.1
						c-0.5-0.1-1-0.1-1.5-0.1c-0.5-0.1-0.9,0-1.3,0c-1.6,0-2.7,0-2.7,0l-1-22.4c0,0,1.6,0,4.1,0c0.6,0,1.3,0,2,0
						c0.7,0.1,1.4,0.1,2.2,0.2c0.8,0.1,1.6,0.1,2.4,0.2c0.8,0.1,1.6,0.1,2.4,0.3c1.6,0.3,3.2,0.6,4.7,0.9c0.8,0.1,1.5,0.3,2.2,0.5
						c0.7,0.2,1.3,0.4,1.9,0.6c1.2,0.4,2.2,0.7,2.9,0.9c0.3,0.1,0.6,0.2,0.8,0.3c0.2,0.1,0.3,0.1,0.3,0.1L1156.9,111.6z"/>
				</g>
				<g>
					<line class="st13" x1="1166.3" y1="94.3" x2="1160.6" y2="107.8"/>
					<line class="st13" x1="1166.3" y1="94.3" x2="1160.6" y2="107.8"/>
					<path class="st14" d="M1172.9,122.1c0,0-0.8-0.8-1.9-1.9c-0.6-0.6-1.4-1.1-2.1-1.8c-0.4-0.3-0.8-0.7-1.2-1
						c-0.4-0.3-0.9-0.6-1.3-0.9c-0.9-0.6-1.8-1.2-2.7-1.7c-0.9-0.5-1.7-0.9-2.4-1.3c-0.4-0.2-0.7-0.4-1-0.5
						c-0.3-0.1-0.6-0.2-0.8-0.3c-0.4-0.2-0.7-0.3-0.7-0.3l8.8-20.7c0,0,0.4,0.2,1,0.4c0.3,0.1,0.7,0.3,1.2,0.5
						c0.5,0.2,1,0.5,1.5,0.8c1.1,0.6,2.4,1.3,3.7,2c1.3,0.8,2.7,1.7,4.1,2.6c0.7,0.5,1.4,0.9,2,1.4c0.6,0.5,1.3,1,1.9,1.5
						c1.2,1,2.3,1.9,3.2,2.7c1.8,1.7,2.9,2.9,2.9,2.9L1172.9,122.1z"/>
				</g>
				<g>
					<line class="st13" x1="1188.9" y1="110.5" x2="1177.9" y2="120.3"/>
					<line class="st13" x1="1188.9" y1="110.5" x2="1177.9" y2="120.3"/>
					<path class="st14" d="M1182.8,138.4c0,0-0.1-0.3-0.2-0.7c-0.1-0.2-0.2-0.5-0.3-0.8c-0.1-0.3-0.3-0.6-0.4-1
						c-0.3-0.7-0.7-1.6-1.1-2.5c-0.4-0.9-1-1.8-1.5-2.8c-0.3-0.5-0.5-1-0.8-1.4c-0.3-0.4-0.6-0.9-0.9-1.3c-0.3-0.4-0.6-0.8-0.8-1.2
						c-0.3-0.4-0.5-0.8-0.8-1.1c-1-1.2-1.7-2.1-1.7-2.1l16.8-14.9c0,0,1.1,1.3,2.6,3.2c0.4,0.5,0.8,1,1.2,1.6
						c0.4,0.6,0.8,1.2,1.3,1.8c0.4,0.6,0.9,1.3,1.3,2c0.5,0.7,0.8,1.4,1.2,2.1c0.8,1.4,1.6,2.9,2.3,4.3c0.6,1.4,1.2,2.7,1.7,3.9
						c0.2,0.6,0.5,1.1,0.7,1.6c0.2,0.5,0.3,0.9,0.4,1.2c0.2,0.7,0.3,1.1,0.3,1.1L1182.8,138.4z"/>
				</g>
				<g>
					<line class="st13" x1="1202.2" y1="134.9" x2="1188.1" y2="138.9"/>
					<line class="st13" x1="1202.2" y1="134.9" x2="1188.1" y2="138.9"/>
					<path class="st14" d="M1184.6,156.7c0,0,0-0.1,0-0.2c0-0.1,0.1-0.3,0.1-0.5c0-0.2,0.1-0.5,0.1-0.7c0-0.3,0.1-0.6,0.1-0.9
						c0.1-0.4,0-1.5,0-2.5c0-0.5,0-1,0-1.6c0-0.5,0-1.1-0.1-1.6c-0.1-1.1-0.2-2.2-0.3-3.2c0-0.5-0.2-1-0.3-1.4
						c-0.1-0.5-0.2-0.9-0.3-1.3c-0.2-0.8-0.3-1.5-0.4-1.9c-0.1-0.4-0.2-0.7-0.2-0.7l21.6-6.1c0,0,0.1,0.4,0.3,1.1
						c0.2,0.7,0.4,1.7,0.6,2.9c0.1,0.6,0.3,1.3,0.4,2c0.1,0.7,0.3,1.4,0.4,2.2c0.2,1.5,0.4,3.2,0.5,4.8c0.1,0.8,0.1,1.6,0.1,2.4
						c0,0.8,0,1.6,0,2.4c0,1.6,0.1,2.9-0.1,4.5c-0.1,0.7-0.1,1.3-0.2,1.9c-0.1,0.5-0.2,1-0.2,1.4c-0.1,0.4-0.1,0.7-0.1,0.9
						c0,0.2-0.1,0.3-0.1,0.3L1184.6,156.7z"/>
				</g>
				<g>
					<line class="st13" x1="1203.3" y1="163.1" x2="1189" y2="159.7"/>
					<line class="st13" x1="1203.3" y1="163.1" x2="1189" y2="159.7"/>
					<path class="st14" d="M1177.5,176.5c0,0,0.6-1.1,1.3-2.7c0.8-1.7,1.8-3.9,2.6-6.2c0.9-2.3,1.6-4.6,2.1-6.2
						c0.5-1.7,0.7-2.7,0.7-2.7l21.9,5.1c0,0-0.4,1.6-1,3.9c-0.6,2.3-1.6,5.2-2.7,8c-1.1,2.8-2.3,5.6-3.2,7.6c-1,2-1.6,3.4-1.6,3.4
						L1177.5,176.5z"/>
				</g>
				<g>
					<line class="st13" x1="1193.7" y1="187.7" x2="1180.8" y2="180.7"/>
					<line class="st13" x1="1193.7" y1="187.7" x2="1180.8" y2="180.7"/>
					<path class="st14" d="M1167.4,190.6c0,0,0,0,0.1-0.1c0.1-0.1,0.3-0.2,0.7-0.5c0.7-0.6,2.1-2.1,3.3-3.8c1.3-1.7,2.5-3.7,3.4-5.2
						c0.9-1.5,1.5-2.6,1.5-2.6l19.8,10.6c0,0-0.7,1.3-1.9,3.3c-1.2,2-2.8,4.7-4.8,7.3c-2,2.7-4.3,5.3-6.7,7.4
						c-1.2,1-2.3,1.9-3.2,2.4c-0.9,0.6-1.5,0.9-1.5,0.9L1167.4,190.6z"/>
				</g>
			</g>
		</g>
	</g>
</g>
</svg>
